<?xml version="1.0" encoding="utf-8"?><!-- Uploaded to: SVG Repo, www.svgrepo.com, Generator: SVG Repo Mixer Tools -->
<svg fill="#000000" width="800px" height="800px" viewBox="0 0 24 24" id="ocean" data-name="Flat Color" xmlns="http://www.w3.org/2000/svg" class="icon flat-color"><path id="secondary" d="M15,21H9a1,1,0,0,1,0-2h6a1,1,0,0,1,0,2Zm3-4H6a1,1,0,0,1,0-2H18a1,1,0,0,1,0,2Z" style="fill: rgb(44, 169, 188);"></path><path id="primary" d="M3,13a1,1,0,0,1-.27-2c.9-.26,1-.68,1.3-2.4l.08-.58a6.33,6.33,0,0,1,4-4.88c1.3-.39,3.34-.35,5.64,2.14A1,1,0,0,1,13,7a2,2,0,0,0,0,4h8a1,1,0,0,1,0,2H13a4,4,0,0,1-2-7.45A2.68,2.68,0,0,0,8.68,5.1,4.39,4.39,0,0,0,6.09,8.37L6,8.92c-.23,1.6-.49,3.41-2.74,4A.84.84,0,0,1,3,13Z" style="fill: rgb(0, 0, 0);"></path></svg>